<?xml version="1.0"?>
<svg version="1.1" xmlns="http://www.w3.org/2000/svg" width="400" height="57" style=""><path fill="#2f4859" d="M42.685,34.52q-1.295,0.525-2.2225,0.525t-0.9275-0.385q0-0.245,1.0325-0.28t1.4875-0.245q1.33-0.7,1.33-2.065q0-0.7-0.385-1.47q-1.12-1.995-5.425-1.995q-2.485,0-4.97,0.7525t-4.165,2.31t-1.68,2.8875q0,2.03,4.025,2.975l4.13,0.77q2.485,0.455,3.71,1.26q1.61,0.98,1.61,2.8q0,0.735-0.245,1.575q-1.12,3.78-5.775,5.775q-3.885,1.715-9.17,1.715q-1.505,0-2.625-0.14q1.12,0.63,2.94,1.085q0.14,0.035,0.14,0.14q0,0.315-0.735,0.315q-1.435,0-3.57-1.715q-2.905-0.455-4.34-1.61q-0.91-0.735-1.68-2.17t-0.77-2.59t0.455-1.925q1.05-1.855,2.66-1.855q1.225,0,1.435,2.065q0.49,3.99,0.665,4.55q0.525,1.715,1.785,2.905q1.47,0.315,3.185,0.315q3.78,0,7.42-1.505t5.25-4.27q0.665-1.085,0.665-1.925q0-1.645-2.905-2.555l-6.16-1.4q-1.89-0.455-3.0275-1.505t-1.1375-2.415q0-2.1,2.625-4.2q1.995-1.61,4.8825-2.5025t5.67-0.8925t4.6025,0.805q2.345,1.085,2.345,3.1675t-2.135,2.9225z M20.145,50.13q-2.03-2.24-2.59-6.125q-0.315-2.205-0.595-2.205t-0.525,0.1575t-0.49,0.6825t-0.245,1.365q0,2.695,1.89,4.62q0.945,0.98,2.555,1.505z M51.86095,38.23l5.04-0.07q0.105,0.07,0.105,0.105q0,0.315-4.3575,0.875t-4.7075,0.665q-0.665,0.595-2.45,3.5525t-1.785,4.3225q0,1.295,1.785,1.295q0.84,0,2.205-0.525t2.1-0.98q1.96-1.225,4.2-3.605q0.49-0.49,0.665-0.49q0.105,0,0.105,0.21t-0.525,0.84q-1.82,2.24-4.095,3.605q-2.73,1.68-5.215,1.68q-1.085,0-1.7675-0.4725t-0.6825-1.9075t1.26-3.9375t1.925-3.7275q-0.49,0.105-0.84,0.105q-1.015,0-1.015-0.805q0-0.595,0.84-0.84q0.105,0,0.315-0.035l2.03,0q0.63-0.805,1.435-1.855q0.98-1.26,1.33-1.26t0.875,0.28t0.525,0.665t-1.68,2.275q0.91,0.035,2.38,0.035z M63.8019,42.08q0,1.225-2.345,4.095q-2.765,3.395-4.725,3.395l-0.56,0q-0.91,0-1.435-0.945q-0.42-0.665-0.42-1.47q0-2.1,3.0625-5.8975t4.9525-3.7975q1.785,0,1.785,1.89q0,0.49-0.175,1.26q0.035,0.105,0.665,0.105t1.925-0.665q-0.035,0.595-2.765,1.715q0.035,0.14,0.035,0.315z M61.5269,40.26q-1.19,0-3.3775,2.8t-2.1875,4.13t0.84,1.33q1.505,0,3.815-2.73t2.31-3.92q-0.56-0.315-1.4-1.61z M64.08785,53.56q1.68,2.1,2.905,2.1q1.995,0,4.305-3.185q1.68-2.345,3.29-5.915l1.33-3.22l-5.145,4.025q-2.38,1.855-3.815,1.855q-0.77,0-1.225-0.525t-0.455-1.19q0-1.505,2.59-4.9525t3.78-3.4475t1.19,0.805q0,0.315-3.0975,3.6225t-3.0975,4.4625q0,0.455,0.595,0.455q1.12,0,4.4975-2.625t5.0925-4.34q0.385-0.455,1.085-1.365q0.665-0.77,1.47-0.77t0.805,0.77q0,0.14-1.575,2.485t-1.645,2.485q-1.085,2.1-3.325,6.125q-3.395,5.46-6.79,5.46q-1.12,0-1.96-0.9625t-0.805-2.1525z M92.1638,39.035l0.49-0.105q0.385,0,0.735,0.315t0.35,0.49t-2.17,3.3775t-2.17,4.4625q0,0.105,0.035,0.21q0.175,0.805,0.77,0.805q1.82,0,6.65-6.02q0.105-0.14,0.245-0.14t0.14,0.2625t-0.315,0.6825q-4.48,5.985-6.825,5.985q-0.315,0-0.595-0.105q-1.54-0.595-1.54-2.31q0-0.595,0.14-1.19l-2.17,2.1q-2.065,1.82-2.9925,1.82t-1.7675-0.595q-0.945-0.7-0.945-1.855q0-2.555,3.57-6.1075t6.545-3.5525q1.155,0,1.54,0.805q0.105,0.28,0.175,0.4725t0.105,0.1925z M81.6988,47.645q0,1.26,0.875,1.26q2.03,0,5.53-4.445l3.71-5.11q-0.28-0.49-0.91-0.49q-2.135,0-5.67,3.3075t-3.535,5.4775z M102.14475,38.44q0.945,0,0.945,0.735q0,0.21-0.105,0.42q-3.15,4.375-3.78,6.615q8.155-8.155,9.905-8.155q0.175-0.035,0.315-0.035q0.98,0,0.98,0.875q0,0.175-0.07,0.35t-1.4,1.89q-1.54,1.82-2.6075,3.5t-1.0675,2.8t0.49,1.12q1.54,0,5.355-4.235q0.07-0.07,0.245-0.315q0.525-0.63,0.63-0.63t0.105,0.35t-0.49,0.91q-4.34,4.935-6.16,4.935q-1.715,0-1.715-1.89t1.4-4.34l2.24-3.64q-2.38,1.75-4.235,3.8325t-3.3775,4.0425t-1.7675,1.96q-0.525,0-0.8225-0.4375t-0.2975-1.085t0.455-1.7325t1.155-2.625l-2.1,2.205q-0.77,0.77-0.9625,0.77t-0.1925-0.2275t0.28-0.5075q1.295-1.295,2.24-2.485q0.91-1.19,3.745-4.55q0.315-0.42,0.665-0.42z M141.2807,25.105q0.735,0,0.735,0.525q0,2.135-5.88,12.215q0.245,0.945,0.77,2.205l10.43-7.945q5.985-4.55,8.085-5.845q4.69-2.8,9.205-2.8q1.295,0,2.38,0.42q0.665,0.245,0.665,0.91t-0.35,0.665q-0.21,0-0.4375-0.28t-1.33-0.28t-3.5875,0.56q-3.92,0.875-8.89,3.92q-3.115,1.925-8.33,5.915t-7.525,5.495q1.785,3.745,4.585,6.965q4.305,5.005,7.735,5.005q1.68,0,1.68-1.295q0-0.245-0.0525-0.49t0.1225-0.595t0.42-0.35q0.455,0,0.595,1.085q0.035,0.175,0.035,0.35q0,1.12-1.1375,1.8375t-2.695,0.7175t-2.6075-0.49q-2.765-1.365-5.5825-4.795t-4.3225-7.21q-1.925,1.12-3.185,1.225q-2.345,3.045-5.775,5.915q-1.855,1.575-4.025,2.5375t-4.165,0.9625q-2.835,0-4.375-1.4175t-1.54-4.3225q0-1.435,0.56-2.66q1.785-3.955,5.39-5.46q1.995-0.875,3.9725-0.875t2.6425,1.295q0.245,0.455,0.245,0.9625t-0.14,0.6475t-0.385-0.245q-0.84-1.54-1.785-1.715q-0.63-0.07-0.91-0.07q-2.73,0-5.11,2.275q-3.08,2.975-3.08,6.44q0,3.78,4.27,4.27l0.28,0q1.54,0,3.955-1.365q3.92-2.24,8.365-7.7q-0.805-0.735-0.805-2.17t1.0675-2.7125t2.9225-1.2775q0.525,0,0.98,0.105q1.75-2.94,3.395-6.3525t1.645-3.9375q0-0.07-0.21-0.07t-2.4325,1.1025t-3.1675,1.7325t-2.31,1.9775t-1.365,2.1875q0,0.385,0.5425,0.77t1.9775,0.385q0.175,0.07,0.175,0.1925t-0.9625,0.28t-1.5225,0.1575q-1.26,0-1.26-1.05q0-1.225,1.505-2.94t3.29-2.695q5.215-2.8,6.615-2.8z M135.7157,40.785q-0.28-0.7-0.455-1.4q-0.7,1.015-1.4,1.995q0.35,0,0.63-0.0525t1.225-0.5425z M134.3857,37.775q-0.42-0.175-0.9275-0.175t-1.015,0.63t-0.5075,1.3475t0.385,1.2075q1.715-2.45,2.065-3.01z M144.50665,53.56q1.68,2.1,2.905,2.1q1.995,0,4.305-3.185q1.68-2.345,3.29-5.915l1.33-3.22l-5.145,4.025q-2.38,1.855-3.815,1.855q-0.77,0-1.225-0.525t-0.455-1.19q0-1.505,2.59-4.9525t3.78-3.4475t1.19,0.805q0,0.315-3.0975,3.6225t-3.0975,4.4625q0,0.455,0.595,0.455q1.12,0,4.4975-2.625t5.0925-4.34q0.385-0.455,1.085-1.365q0.665-0.77,1.47-0.77t0.805,0.77q0,0.14-1.575,2.485t-1.645,2.485q-1.085,2.1-3.325,6.125q-3.395,5.46-6.79,5.46q-1.12,0-1.96-0.9625t-0.805-2.1525z M170.7626,49.71q-0.175,0.035-0.7525,0.035t-1.155-0.455t-0.5775-1.1725t0.2625-1.5925t0.3675-1.33q-4.025,4.69-6.3,4.69q-1.435,0-1.575-1.785l0-0.245q0-1.505,1.82-4.06q-1.015,0.91-2.065,2.1q-0.14,0.14-0.35,0.14q-0.14,0-0.14-0.175t0.315-0.595l4.83-5.67q0.91-1.05,1.855-1.05t0.945,0.63q0,0.245-0.21,0.455q-1.4,1.295-3.5175,4.305t-2.1175,4.445q0,0.63,0.42,0.63q1.47,0,4.27-2.905q0.98-0.98,3.64-4.3225t3.5-3.3425q1.26,0,1.26,0.98q0,0.35-1.47,2.03q-1.995,2.415-3.045,3.9375t-1.05,2.4675t0.525,0.945q0.245,0,0.56-0.14q2.415-1.05,5.775-4.9q0.21-0.245,0.42-0.245t0.21,0.2275t-0.245,0.5075q-1.505,1.75-3.535,3.5175t-2.87,1.9425z M194.11355,49.08q-2.38,0-2.38-2.205q0-1.26,1.12-3.4475t2.345-3.6925q-2.17,1.05-5.005,3.7975t-3.955,5.7575q-0.175,0.28-0.595,0.28q-0.84,0-0.84-0.945q0.35-1.925,1.575-4.41q0.385-0.805,2.275-4.69q-2.73,1.785-4.6375,3.8325t-3.535,4.1125t-1.8375,2.065q-0.455,0-0.7875-0.42t-0.3325-0.84q0-0.63,1.82-4.62l-2.1,2.205q-0.77,0.77-0.9625,0.77t-0.1925-0.2275t0.28-0.5075q1.295-1.295,2.31-2.59t3.36-4.62q0.385-0.525,1.085-0.525t0.7,0.665q0,0.245-1.855,3.4125t-2.065,3.9725q1.435-1.575,4.305-4.235q4.305-3.99,5.67-3.99q0.42,0,0.77,0.245t0.35,0.5425t-1.365,2.6425q-1.33,2.415-1.47,2.87q3.885-3.255,3.885-3.29q3.29-2.555,4.725-2.555q0.42,0,0.7875,0.2625t0.3675,0.6125q0,0.07-2.275,2.9575t-2.555,4.7425q-0.07,0.63,0.245,0.945t1.1375,0.315t2.415-1.1375t3.2375-3.0625q0.63-0.7,0.8575-0.7t0.2275,0.175q0,0.245-0.315,0.56q-1.715,2.065-3.6925,3.5175t-3.0975,1.4525z M199.0545,53.56q1.68,2.1,2.905,2.1q1.995,0,4.305-3.185q1.68-2.345,3.29-5.915l1.33-3.22l-5.145,4.025q-2.38,1.855-3.815,1.855q-0.77,0-1.225-0.525t-0.455-1.19q0-1.505,2.59-4.9525t3.78-3.4475t1.19,0.805q0,0.315-3.0975,3.6225t-3.0975,4.4625q0,0.455,0.595,0.455q1.12,0,4.4975-2.625t5.0925-4.34q0.385-0.455,1.085-1.365q0.665-0.77,1.47-0.77t0.805,0.77q0,0.14-1.575,2.485t-1.645,2.485q-1.085,2.1-3.325,6.125q-3.395,5.46-6.79,5.46q-1.12,0-1.96-0.9625t-0.805-2.1525z M225.31045,49.71q-0.175,0.035-0.7525,0.035t-1.155-0.455t-0.5775-1.1725t0.2625-1.5925t0.3675-1.33q-4.025,4.69-6.3,4.69q-1.435,0-1.575-1.785l0-0.245q0-1.505,1.82-4.06q-1.015,0.91-2.065,2.1q-0.14,0.14-0.35,0.14q-0.14,0-0.14-0.175t0.315-0.595l4.83-5.67q0.91-1.05,1.855-1.05t0.945,0.63q0,0.245-0.21,0.455q-1.4,1.295-3.5175,4.305t-2.1175,4.445q0,0.63,0.42,0.63q1.47,0,4.27-2.905q0.98-0.98,3.64-4.3225t3.5-3.3425q1.26,0,1.26,0.98q0,0.35-1.47,2.03q-1.995,2.415-3.045,3.9375t-1.05,2.4675t0.525,0.945q0.245,0,0.56-0.14q2.415-1.05,5.775-4.9q0.21-0.245,0.42-0.245t0.21,0.2275t-0.245,0.5075q-1.505,1.75-3.535,3.5175t-2.87,1.9425z M239.0714,49.675q-2.625,0-2.625-2.905q0-1.47,0.77-3.22t1.68-2.94q-0.175,0.035-0.455,0.035q-0.84,0-1.4-1.19l-2.59,3.36q-2.17,2.695-2.52,2.695q-0.175,0-0.175-0.14q0-0.35,0.595-1.015q3.045-3.535,4.305-5.985q0.805-3.045,2.03-3.045q0.805,0,0.805,0.7t-0.875,1.785l-0.84,1.12q0,0.735,1.085,0.735q0.63,0,1.4-0.455l0.91-0.56q0.07-0.035,0.35-0.035t0.595,0.35t0.21,0.63l-2.415,3.045q-2.24,2.87-2.24,4.5325t1.54,1.6625q1.61,0,3.955-1.715q1.4-1.015,2.555-2.275q1.085-1.26,1.19-1.26q0.245,0,0.245,0.2625t-0.315,0.6125l-1.12,1.26q-0.945,0.98-2.1,1.89q-2.765,2.065-4.55,2.065z M258.74735,38.895q3.92-6.37,5.46-6.37q0.245,0,0.6825,0.1575t0.4375,0.4725q0,0.175-0.175,0.455q-2.8,3.43-4.165,5.145q-4.13,5.215-4.55,7.49q-0.105,0.49-0.105,0.98q0,1.575,1.295,1.575q2.59,0,6.755-4.795q0.35-0.35,0.595-0.4025t0.245,0.1225t-0.21,0.42q-4.06,4.865-7.21,5.425q-0.175,0.035-0.49,0.035q-1.085,0-1.6275-0.7525t-0.5425-1.6275q0-0.98,0.385-2.17l-2.835,2.835q-1.925,1.785-3.0275,1.785t-1.8375-0.595q-0.875-0.665-0.875-1.855q0-2.555,3.57-6.1075t6.545-3.5525q0.98,0,1.365,0.525q0.14,0.175,0.315,0.805z M248.42235,47.645q0,1.26,0.875,1.26q1.505,0,5.005-4.13q0.63-0.735,4.2-5.495q-0.245-0.42-0.84-0.42q-2.17,0-5.705,3.3075t-3.535,5.4775z M273.2958,35.5q0.4725,0.35,0.4725,0.7875t-0.4375,0.77t-0.9625,0.3325t-0.9625-0.3675t-0.4375-0.8575q0-1.015,1.33-1.015q0.525,0,0.9975,0.35z M271.6333,39.98q0,0.21-2.765,4.97q-2.695,5.145-4.165,7.175q-3.185,4.55-5.985,4.55q-1.05,0-1.9425-0.6825t-0.8925-1.365t0.315-0.6825q0.035,0,0.7175,0.8925t1.5925,0.8925q2.8,0,6.37-6.335q2.205-3.955,3.01-6.405q-0.42,0.49-1.4525,1.435t-1.26,0.945t-0.2275-0.105q0-0.315,0.56-0.805t1.505-1.855t1.12-1.505l1.155-1.225q0.7-0.665,1.5225-0.665t0.8225,0.77z M282.33175,35.5525q0.4725,0.3325,0.4725,0.7875t-0.4375,0.7875t-0.9625,0.3325t-0.9625-0.385t-0.4375-0.875q0-0.98,1.33-0.98q0.525,0,0.9975,0.3325z M274.99925,49.885q-1.785,0-1.785-2.31q0-1.89,2.065-5.2325t3.325-3.3775q0.35,0,0.7875,0.28t0.4375,0.56q-0.175,0.245-0.42,0.5425t-0.525,0.6475t-0.77,0.9975t-0.945,1.2425q-2.625,3.395-2.625,4.6725t0.875,1.2775q0.735,0,1.995-0.805q2.94-1.82,4.655-3.99q0.63-0.805,0.8575-0.805t0.2275,0.28t-0.805,1.12t-1.2775,1.33t-0.6475,0.6475t-0.6475,0.595t-0.7175,0.6125t-0.7,0.525t-0.805,0.5075t-0.805,0.3675q-0.735,0.315-1.75,0.315z M284.9802,49.955q-0.385,0-0.7-0.105q-2.24-0.63-2.24-2.52q0-2.45,3.08-5.67t5.53-3.22q0.805,0,1.3125,0.4375t0.5075,1.0675q0,1.96-2.9575,3.745t-4.8125,1.785q-0.28,0-0.49-0.07q-0.525,0.945-0.525,1.995q0,1.82,1.7325,1.82t4.4975-2.345q2.135-1.715,3.64-3.64q0.315-0.42,0.5425-0.42t0.2275,0.21t-0.28,0.595q-1.89,2.485-4.55,4.41t-4.515,1.925z M291.5952,39.875q0-0.42-0.8925-0.42t-2.5375,1.365q-2.205,1.82-3.43,3.815q0.21,0.07,0.455,0.07q1.33,0,3.5525-1.4175t2.7825-3.0975q0.07-0.175,0.07-0.315z M303.22115,35.745q1.05,0,1.785,0.7t0.735,1.96q0,2.765-4.585,6.93q-3.885,3.5-6.265,4.27q-0.385,0-1.015-0.42t-0.63-0.77q0-0.77,1.68-5.215t2.31-4.97q0.14-0.14,0.455-0.14t0.665,0.3325t0.385,0.7875q0,0.035-1.7325,4.06t-1.6275,4.795q1.505-0.455,5.3725-3.675t3.8675-5.775q0-1.54-1.54-2.24q-0.245-0.105-0.245-0.315q0-0.315,0.385-0.315z"/><path fill="#" d=""/></svg>
